<svg xmlns="http://www.w3.org/2000/svg" xmlns:xlink="http://www.w3.org/1999/xlink" width="500" zoomAndPan="magnify" viewBox="0 0 375 374.999991" height="500" preserveAspectRatio="xMidYMid meet" version="1.2"><defs><clipPath id="32b4091693"><path d="M 0.0625 17.386719 L 375 17.386719 L 375 357 L 0.0625 357 Z M 0.0625 17.386719 "/></clipPath><clipPath id="aea955b671"><path d="M 232.121094 107.121094 L 302.292969 107.121094 L 302.292969 184.414062 L 232.121094 184.414062 Z M 232.121094 107.121094 "/></clipPath></defs><g id="356bba6d57"><g clip-rule="nonzero" clip-path="url(#32b4091693)"><path style=" stroke:none;fill-rule:evenodd;fill:#cb6ce6;fill-opacity:1;" d="M 111.164062 129.539062 C 111.46875 129.003906 111.816406 128.519531 112.203125 128.074219 C 110.980469 112.953125 108.0625 97.660156 103.15625 82.59375 C 100.167969 73.417969 96.4375 64.320312 91.890625 55.398438 C 87.976562 73.730469 81.292969 91.089844 72.109375 106.992188 C 62.941406 122.871094 51.273438 137.328125 37.382812 149.859375 C 48.230469 149.214844 58.765625 147.59375 68.96875 145.195312 C 83.503906 141.78125 97.378906 136.804688 110.535156 130.816406 C 110.71875 130.382812 110.929688 129.957031 111.164062 129.539062 M 130.238281 117.074219 L 176.207031 90.566406 L 236.925781 55.511719 C 239.878906 53.417969 243.898438 53.097656 247.246094 55.03125 L 308.738281 90.53125 L 370.175781 126.050781 L 370.226562 126.085938 L 370.289062 126.121094 L 370.359375 126.15625 L 370.425781 126.199219 L 370.488281 126.234375 L 370.550781 126.277344 L 370.628906 126.332031 L 370.679688 126.355469 L 370.742188 126.398438 L 370.820312 126.445312 L 370.863281 126.480469 L 370.925781 126.523438 L 370.984375 126.566406 L 371.003906 126.574219 L 371.046875 126.609375 L 371.105469 126.652344 L 371.230469 126.738281 L 371.296875 126.785156 L 371.359375 126.828125 L 371.378906 126.84375 L 371.410156 126.878906 L 371.472656 126.921875 L 371.535156 126.976562 L 371.558594 126.992188 L 371.59375 127.019531 L 371.65625 127.070312 L 371.71875 127.125 L 371.742188 127.140625 L 371.769531 127.167969 L 371.832031 127.21875 L 371.882812 127.273438 L 371.910156 127.296875 L 371.933594 127.324219 L 371.988281 127.375 L 372.039062 127.429688 L 372.074219 127.453125 L 372.101562 127.480469 L 372.160156 127.53125 L 372.421875 127.792969 L 372.441406 127.820312 L 372.492188 127.882812 L 372.578125 127.976562 L 372.597656 127.996094 L 372.648438 128.054688 L 372.703125 128.117188 L 372.738281 128.160156 L 372.753906 128.179688 L 372.804688 128.238281 L 372.859375 128.300781 L 372.894531 128.34375 L 372.902344 128.359375 L 372.953125 128.421875 L 372.996094 128.484375 L 373.050781 128.550781 L 373.09375 128.613281 L 373.144531 128.675781 L 373.191406 128.734375 L 373.242188 128.796875 L 373.328125 128.925781 L 373.417969 129.058594 L 373.503906 129.199219 L 373.546875 129.265625 L 373.675781 129.476562 L 373.722656 129.546875 L 373.757812 129.625 L 373.800781 129.703125 L 373.886719 129.84375 L 373.957031 130 L 373.992188 130.070312 L 374.027344 130.136719 L 374.0625 130.21875 L 374.097656 130.296875 L 374.128906 130.363281 L 374.148438 130.417969 L 374.15625 130.445312 L 374.191406 130.523438 L 374.21875 130.582031 L 374.234375 130.636719 L 374.242188 130.660156 L 374.277344 130.738281 L 374.304688 130.816406 L 374.324219 130.863281 L 374.332031 130.898438 L 374.367188 130.976562 L 374.410156 131.089844 L 374.417969 131.125 L 374.445312 131.203125 L 374.46875 131.269531 L 374.496094 131.351562 L 374.523438 131.429688 L 374.539062 131.507812 L 374.550781 131.53125 L 374.566406 131.585938 L 374.617188 131.757812 L 374.652344 131.804688 L 374.671875 131.890625 L 374.695312 131.984375 L 374.714844 132.046875 L 374.730469 132.125 L 374.757812 132.210938 L 374.785156 132.359375 L 374.800781 132.449219 L 374.820312 132.515625 L 374.828125 132.585938 L 374.84375 132.664062 L 374.855469 132.742188 L 374.863281 132.824219 L 374.878906 132.980469 L 374.890625 133.058594 L 374.90625 133.214844 L 374.90625 133.292969 L 374.921875 133.449219 L 374.933594 133.527344 L 374.933594 133.605469 L 374.941406 133.695312 L 374.949219 133.773438 L 374.949219 133.851562 L 374.957031 133.929688 L 374.957031 134.46875 L 375.003906 276.34375 C 375.003906 279.933594 373.023438 283.0625 370.097656 284.691406 L 308.722656 320.132812 L 308.21875 320.402344 L 248.003906 355.171875 C 245.046875 357.261719 241.03125 357.578125 237.683594 355.652344 L 176.179688 320.140625 L 114.683594 284.632812 L 114.703125 284.597656 C 111.84375 282.949219 109.9375 279.863281 109.945312 276.328125 L 109.945312 205.917969 L 109.925781 205.339844 L 109.925781 151.878906 C 98.242188 156.714844 86.058594 160.785156 73.378906 163.765625 C 53.164062 168.507812 31.742188 170.503906 9.210938 168.480469 C 3.964844 168 0.09375 163.355469 0.574219 158.101562 C 0.871094 154.886719 2.734375 152.175781 5.339844 150.6875 C 26.382812 136.71875 43.402344 118.488281 55.566406 97.425781 C 67.828125 76.1875 75.121094 52.121094 76.613281 26.683594 C 76.933594 21.429688 81.441406 17.429688 86.695312 17.753906 C 89.710938 17.925781 92.316406 19.496094 93.917969 21.785156 L 93.953125 21.769531 C 106.242188 39.300781 115.207031 57.820312 121.351562 76.6875 C 125.664062 90.035156 128.582031 103.570312 130.238281 117.074219 Z M 232.910156 276.371094 L 232.910156 210.875 L 128.992188 150.878906 L 128.992188 205.332031 L 128.976562 205.941406 L 128.976562 270.820312 L 185.738281 303.59375 L 232.9375 330.84375 Z M 185.722656 107.0625 L 242.40625 74.316406 L 185.730469 107.046875 Z M 327.703125 232.078125 C 324.539062 237.566406 326.410156 244.582031 331.902344 247.746094 C 337.382812 250.90625 344.40625 249.035156 347.570312 243.542969 C 350.742188 238.054688 348.859375 231.039062 343.371094 227.875 C 337.886719 224.714844 330.875 226.585938 327.703125 232.078125 Z M 327.703125 232.078125 "/></g><g clip-rule="nonzero" clip-path="url(#aea955b671)"><path style=" stroke:none;fill-rule:nonzero;fill:#cb6ce6;fill-opacity:1;" d="M 232.121094 107.121094 L 302.292969 107.121094 L 302.292969 184.421875 L 232.121094 184.421875 Z M 232.121094 107.121094 "/></g></g></svg>